# xmcd
# 
# Track frame offsets:
#     150
#     17375
#     31758
#     46565
#     62318
#     76268
#     93345
#     107950
#     126393
#     144350
#     157783
#     171093
# 
# Disc length: 2470
# 
# Revision: 0
# Processed by: cddbd v1.5.2PL0 Copyright (c) Steve Scherf et al.
# Submitted via: BonkEnc v1.0.5
# 
DISCID=7f09a40c
DTITLE=Ricchi e Poveri - I Grandi Successi Originali - CD1
DYEAR=2000
DGENRE=Pop
TTITLE0=La prima cosa bella
TTITLE1=Primo sole, primo fiore
TTITLE2=M'innamoro di te
TTITLE3=Dimmi quando
TTITLE4=Sarà perchè ti amo
TTITLE5=Voulez Vous Danser
TTITLE6=Cocco bello africa
TTITLE7=Canzone d'amore
TTITLE8=Hasta la vista
TTITLE9=Come vorrei
TTITLE10=Mamma Maria
TTITLE11=E penso a te
EXTD=YEAR: 2000
EXTT0=
EXTT1=
EXTT2=
EXTT3=
EXTT4=
EXTT5=
EXTT6=
EXTT7=
EXTT8=
EXTT9=
EXTT10=
EXTT11=
PLAYORDER=
